<mxfile host="Electron" agent="Mozilla/5.0 (X11; Linux x86_64) AppleWebKit/537.36 (KHTML, like Gecko) draw.io/28.0.6 Chrome/138.0.7204.100 Electron/37.2.3 Safari/537.36" version="28.0.6">
  <diagram name="Page-1" id="MasQtAWinihZrvsBghmN">
    <mxGraphModel dx="758" dy="502" grid="1" gridSize="10" guides="1" tooltips="1" connect="1" arrows="1" fold="1" page="1" pageScale="1" pageWidth="850" pageHeight="1100" math="0" shadow="0">
      <root>
        <mxCell id="0" />
        <mxCell id="1" parent="0" />
        <mxCell id="3j-HDxETLHOxmQgHMlQt-1" value="" style="whiteSpace=wrap;strokeWidth=2;fillColor=#e1d5e7;strokeColor=#9673a6;" vertex="1" parent="1">
          <mxGeometry x="390" y="17" width="270" height="343" as="geometry" />
        </mxCell>
        <mxCell id="3j-HDxETLHOxmQgHMlQt-2" value="Quá trình Khởi tạo" style="whiteSpace=wrap;strokeWidth=2;fillColor=#dae8fc;strokeColor=#6c8ebf;" vertex="1" parent="1">
          <mxGeometry x="80" y="17" width="240" height="343" as="geometry" />
        </mxCell>
        <mxCell id="3j-HDxETLHOxmQgHMlQt-24" value="" style="edgeStyle=orthogonalEdgeStyle;rounded=0;orthogonalLoop=1;jettySize=auto;html=1;" edge="1" parent="1" target="3j-HDxETLHOxmQgHMlQt-4">
          <mxGeometry relative="1" as="geometry">
            <mxPoint x="201.5" y="99" as="sourcePoint" />
          </mxGeometry>
        </mxCell>
        <mxCell id="3j-HDxETLHOxmQgHMlQt-26" style="edgeStyle=orthogonalEdgeStyle;rounded=0;orthogonalLoop=1;jettySize=auto;html=1;entryX=0.5;entryY=0;entryDx=0;entryDy=0;" edge="1" parent="1" source="3j-HDxETLHOxmQgHMlQt-4" target="3j-HDxETLHOxmQgHMlQt-5">
          <mxGeometry relative="1" as="geometry" />
        </mxCell>
        <mxCell id="3j-HDxETLHOxmQgHMlQt-4" value="Kết nối Wi-Fi" style="rhombus;strokeWidth=2;whiteSpace=wrap;" vertex="1" parent="1">
          <mxGeometry x="96.5" y="130" width="210" height="80" as="geometry" />
        </mxCell>
        <mxCell id="3j-HDxETLHOxmQgHMlQt-5" value="Khởi tạo Camera" style="whiteSpace=wrap;strokeWidth=2;" vertex="1" parent="1">
          <mxGeometry x="111" y="250" width="181" height="54" as="geometry" />
        </mxCell>
        <mxCell id="3j-HDxETLHOxmQgHMlQt-29" style="edgeStyle=orthogonalEdgeStyle;rounded=0;orthogonalLoop=1;jettySize=auto;html=1;" edge="1" parent="1" target="3j-HDxETLHOxmQgHMlQt-7">
          <mxGeometry relative="1" as="geometry">
            <mxPoint x="532.5263157894738" y="84" as="sourcePoint" />
          </mxGeometry>
        </mxCell>
        <mxCell id="3j-HDxETLHOxmQgHMlQt-7" value="PSRAM" style="rounded=1;arcSize=20;strokeWidth=2" vertex="1" parent="1">
          <mxGeometry x="432.5" y="110" width="200" height="54" as="geometry" />
        </mxCell>
        <mxCell id="3j-HDxETLHOxmQgHMlQt-20" value="Lấy frame" style="startArrow=none;endArrow=block;exitX=0.5;exitY=1;entryX=0.5;entryY=0;rounded=0;exitDx=0;exitDy=0;entryDx=0;entryDy=0;" edge="1" parent="1" source="3j-HDxETLHOxmQgHMlQt-7">
          <mxGeometry x="-0.2432" y="-19" relative="1" as="geometry">
            <mxPoint x="532.5" y="210" as="targetPoint" />
            <mxPoint as="offset" />
          </mxGeometry>
        </mxCell>
        <mxCell id="3j-HDxETLHOxmQgHMlQt-27" style="edgeStyle=orthogonalEdgeStyle;rounded=0;orthogonalLoop=1;jettySize=auto;html=1;exitX=0.5;exitY=1;exitDx=0;exitDy=0;" edge="1" parent="1" source="3j-HDxETLHOxmQgHMlQt-7" target="3j-HDxETLHOxmQgHMlQt-7">
          <mxGeometry relative="1" as="geometry" />
        </mxCell>
        <mxCell id="3j-HDxETLHOxmQgHMlQt-31" style="edgeStyle=orthogonalEdgeStyle;rounded=0;orthogonalLoop=1;jettySize=auto;html=1;exitX=0.5;exitY=1;exitDx=0;exitDy=0;" edge="1" parent="1">
          <mxGeometry relative="1" as="geometry">
            <mxPoint x="532.5" y="264" as="sourcePoint" />
            <mxPoint x="532.5" y="264" as="targetPoint" />
          </mxGeometry>
        </mxCell>
        <mxCell id="3j-HDxETLHOxmQgHMlQt-32" value="Khởi tạo Hệ thống" style="rounded=1;whiteSpace=wrap;html=1;" vertex="1" parent="1">
          <mxGeometry x="110" y="40" width="180" height="60" as="geometry" />
        </mxCell>
        <mxCell id="3j-HDxETLHOxmQgHMlQt-33" value="Khởi động HTTP Server" style="rounded=1;whiteSpace=wrap;html=1;" vertex="1" parent="1">
          <mxGeometry x="430" y="30" width="200" height="60" as="geometry" />
        </mxCell>
        <mxCell id="3j-HDxETLHOxmQgHMlQt-35" value="&lt;span style=&quot;color: rgb(0, 0, 0); font-family: Helvetica; font-size: 12px; font-style: normal; font-variant-ligatures: normal; font-variant-caps: normal; font-weight: 400; letter-spacing: normal; orphans: 2; text-align: center; text-indent: 0px; text-transform: none; widows: 2; word-spacing: 0px; -webkit-text-stroke-width: 0px; white-space: normal; background-color: rgb(236, 236, 236); text-decoration-thickness: initial; text-decoration-style: initial; text-decoration-color: initial; display: inline !important; float: none;&quot;&gt;Ứng dụng Python&lt;/span&gt;" style="rounded=1;whiteSpace=wrap;html=1;" vertex="1" parent="1">
          <mxGeometry x="430" y="290" width="200" height="60" as="geometry" />
        </mxCell>
        <mxCell id="3j-HDxETLHOxmQgHMlQt-37" value="" style="edgeStyle=orthogonalEdgeStyle;rounded=0;orthogonalLoop=1;jettySize=auto;html=1;" edge="1" parent="1" source="3j-HDxETLHOxmQgHMlQt-36" target="3j-HDxETLHOxmQgHMlQt-35">
          <mxGeometry relative="1" as="geometry" />
        </mxCell>
        <mxCell id="3j-HDxETLHOxmQgHMlQt-36" value="Truyền tải MJPEG" style="rounded=1;whiteSpace=wrap;html=1;" vertex="1" parent="1">
          <mxGeometry x="430" y="200" width="200" height="60" as="geometry" />
        </mxCell>
      </root>
    </mxGraphModel>
  </diagram>
</mxfile>
